<svg width="180" height="48" viewBox="0 0 180 48" fill="none" xmlns="http://www.w3.org/2000/svg">
<g clip-path="url(#clip0_166_7)">
<path d="M3.98196 16.1163C4.22806 15.7855 4.55216 15.3377 4.81172 15.0176C5.58903 14.1354 5.68989 14.0197 6.39727 13.3675C6.60706 13.1954 6.85585 12.9883 7.09927 12.7933C5.30392 14.3129 5.0753 15.9953 6.72272 17.0348C6.72003 17.0348 6.72003 17.0348 6.72003 17.0375C9.02372 18.4254 14.0722 18.1255 18.0556 16.3476C21.9139 14.6263 23.3381 12.1639 21.4338 10.7007C19.7622 10.3874 17.7691 10.3511 15.6604 10.6335L15.4412 10.2717L15.6228 9.67191C16.8627 9.56029 18.0408 9.58719 19.0575 9.76067C19.3036 9.80236 19.6277 9.87364 19.8698 9.92474C20.3378 10.0391 20.5919 10.1076 20.8972 10.2058C21.2092 10.2986 21.4755 10.3914 21.9394 10.5635C22.394 10.7424 22.5903 10.8231 22.9548 11.0046C23.3629 11.1908 23.7595 11.4015 24.1423 11.6354C27.1762 13.5437 25.2894 17.0254 19.9356 19.4112C14.5967 21.7888 7.7932 22.1627 4.74447 20.2772C4.74313 20.2745 4.73909 20.2718 4.73103 20.2692H4.7364C3.07151 19.2148 2.89668 17.6844 3.98196 16.1163ZM17.8727 29.457L17.8296 27.3134L16.306 25.6189C11.2723 26.7593 6.32465 26.5145 3.57313 24.894C3.56372 24.8833 3.54085 24.8725 3.53144 24.8617C1.97413 23.9029 1.58951 22.6656 1.70651 21.3208C1.34206 23.2883 1.31247 23.9984 1.36492 25.6821C1.42947 26.7364 2.03868 27.7087 3.26382 28.4753L3.27323 28.4861C6.2063 30.3096 12.3172 30.705 17.8727 29.457ZM24.227 31.9113C17.1223 34.761 8.23027 34.9291 4.36792 32.2919C4.78503 33.3112 5.35258 34.2623 6.05165 35.1134C9.59661 37.5341 17.7584 37.3794 24.2768 34.7637C28.092 33.2346 30.4993 31.1999 31.1313 29.2929L31.3089 28.7187C31.7298 27.2636 31.8091 26.0519 31.8764 24.9734C31.7997 27.3147 29.0415 29.9775 24.227 31.9113ZM8.54361 37.3996C8.76685 37.6121 9.46885 38.4741 13.0259 39.4262C13.9875 39.6387 16.4082 40.3205 20.8797 39.3294L20.9066 38.9219L20.5529 38.3678C16.4041 39.3496 11.7954 39.0214 8.54361 37.3996ZM18.81 20.4426L22.5876 23.3058C22.5876 23.3058 23.3959 23.8881 22.6334 24.2969C21.8735 24.7017 19.9222 25.6928 19.9222 25.6928L17.9951 24.9734L17.0281 25.4037L18.7334 26.8844L18.7468 29.1881L19.7487 28.7429L20.4131 26.7969C20.4131 26.7969 22.4532 26.0116 23.2628 25.7157C24.0764 25.4266 23.9674 26.4164 23.9674 26.4164L23.5667 31.1381L24.8981 30.5463L27.0901 24.1759C27.0901 24.1759 28.2521 23.6111 29.0697 23.1148C29.886 22.6186 30.1658 21.7955 30.1658 21.7955C30.1658 21.7955 29.3696 21.4526 28.4524 21.7283C27.5353 22.0013 26.3397 22.4881 26.3397 22.4881L20.1374 19.8536L18.81 20.4426ZM10.8177 11.3839L13.3823 13.4267L14.083 13.3218L12.687 11.4888C12.687 11.4888 12.3831 11.1095 12.7919 11.0194C13.2034 10.928 14.2443 10.7155 14.2443 10.7155L15.027 11.3408L15.5542 11.2628L14.9571 10.3134L15.2718 9.26039L14.7621 9.33436L14.1583 10.1359C14.1583 10.1359 13.0985 10.2354 12.6816 10.2704C12.2621 10.3026 12.4423 9.85212 12.4423 9.85212L13.2465 7.68964L12.5418 7.79319L10.6859 10.4949C10.6859 10.4949 10.0673 10.6079 9.61947 10.7357C9.1703 10.8621 8.93361 11.2091 8.93361 11.2091C8.93361 11.2091 9.2631 11.4753 9.72706 11.4659C10.1951 11.4565 10.8177 11.3839 10.8177 11.3839ZM23.4927 37.6322L21.8332 36.7648L21.4513 36.8979L22.4343 37.7775C22.4343 37.7775 22.6441 37.9563 22.4236 38.0518C22.203 38.1459 21.6409 38.3773 21.6409 38.3773L21.1769 38.1702L20.9012 38.2697L21.2872 38.6812L21.2495 39.2823L21.5373 39.1828L21.7525 38.6946C21.7525 38.6946 22.3362 38.5212 22.5688 38.4593C22.8001 38.3961 22.7477 38.6677 22.7477 38.6677L22.5285 39.9655L22.9118 39.8324L23.6635 38.1164C23.6635 38.1164 23.9957 37.9859 24.2337 37.8662C24.4718 37.7465 24.5659 37.526 24.5659 37.526C24.5659 37.526 24.3548 37.4103 24.0939 37.4682C23.8316 37.5233 23.4927 37.6322 23.4927 37.6322Z" fill="url(#paint0_linear_166_7)"/>
</g>
<path d="M43.8306 16.7641V21.3473H51.2218V25.6077H43.8306V30.5782H52.1901V35H38.3114V12.3423H52.1901V16.7641H43.8306ZM54.6758 25.9628C54.6758 24.1123 55.0201 22.4877 55.7086 21.0891C56.4187 19.6905 57.3762 18.6146 58.5812 17.8615C59.7861 17.1084 61.131 16.7319 62.6157 16.7319C63.8852 16.7319 64.9933 16.9901 65.9401 17.5065C66.9084 18.0229 67.6507 18.7007 68.1671 19.5399V16.9901H73.6863V35H68.1671V32.4502C67.6292 33.2894 66.8761 33.9672 65.9078 34.4836C64.961 35 63.8529 35.2582 62.5834 35.2582C61.1202 35.2582 59.7861 34.8817 58.5812 34.1286C57.3762 33.3539 56.4187 32.2673 55.7086 30.8687C55.0201 29.4486 54.6758 27.8132 54.6758 25.9628ZM68.1671 25.995C68.1671 24.6179 67.7798 23.5313 67.0052 22.7352C66.2521 21.939 65.3268 21.541 64.2295 21.541C63.1321 21.541 62.1961 21.939 61.4215 22.7352C60.6684 23.5098 60.2918 24.5857 60.2918 25.9628C60.2918 27.3399 60.6684 28.4372 61.4215 29.2549C62.1961 30.051 63.1321 30.4491 64.2295 30.4491C65.3268 30.4491 66.2521 30.051 67.0052 29.2549C67.7798 28.4588 68.1671 27.3721 68.1671 25.995ZM85.0058 35.2582C83.435 35.2582 82.0364 34.9892 80.8099 34.4513C79.5834 33.9134 78.6152 33.1818 77.9051 32.2566C77.195 31.3098 76.797 30.2554 76.7109 29.0935H82.1655C82.2301 29.7175 82.5205 30.2232 83.037 30.6105C83.5534 30.9978 84.1881 31.1914 84.9412 31.1914C85.6298 31.1914 86.157 31.0623 86.5227 30.8041C86.9101 30.5244 87.1037 30.1694 87.1037 29.739C87.1037 29.2226 86.8347 28.8461 86.2968 28.6094C85.7589 28.3512 84.8874 28.0714 83.6825 27.7702C82.3914 27.469 81.3156 27.157 80.4549 26.8342C79.5942 26.4899 78.8518 25.9628 78.2278 25.2527C77.6038 24.5211 77.2918 23.5421 77.2918 22.3156C77.2918 21.2828 77.5716 20.3468 78.131 19.5076C78.712 18.6469 79.5512 17.9691 80.6485 17.4742C81.7674 16.9793 83.0907 16.7319 84.6185 16.7319C86.8778 16.7319 88.653 17.2913 89.944 18.4102C91.2565 19.5291 92.0096 21.0138 92.2033 22.8643H87.1037C87.0176 22.2403 86.7379 21.7454 86.2645 21.3796C85.8127 21.0138 85.2102 20.8309 84.4571 20.8309C83.8116 20.8309 83.3167 20.96 82.9724 21.2182C82.6281 21.4549 82.456 21.7884 82.456 22.2188C82.456 22.7352 82.725 23.1225 83.2629 23.3807C83.8223 23.6389 84.683 23.8971 85.845 24.1553C87.179 24.4996 88.2656 24.8439 89.1048 25.1881C89.944 25.5109 90.6756 26.0488 91.2996 26.8019C91.9451 27.5335 92.2786 28.5233 92.3001 29.7713C92.3001 30.8257 91.9989 31.7724 91.3964 32.6116C90.8154 33.4292 89.9655 34.0748 88.8466 34.5481C87.7492 35.0215 86.469 35.2582 85.0058 35.2582ZM114.074 16.9901L102.777 43.5531H96.8387L100.97 34.3868L93.6434 16.9901H99.808L103.972 28.2543L108.103 16.9901H114.074Z" fill="url(#paint1_radial_166_7)"/>
<path d="M132.369 12.3423V16.7641H126.366V35H120.847V16.7641H114.843V12.3423H132.369ZM140.658 19.9917C141.304 19.0019 142.111 18.2273 143.079 17.6679C144.047 17.0869 145.123 16.7964 146.306 16.7964V22.6383H144.789C143.412 22.6383 142.38 22.9396 141.691 23.5421C141.002 24.123 140.658 25.1559 140.658 26.6406V35H135.139V16.9901H140.658V19.9917ZM151.72 15.1181C150.752 15.1181 149.956 14.8383 149.332 14.2789C148.729 13.6979 148.428 12.9879 148.428 12.1487C148.428 11.288 148.729 10.5779 149.332 10.0185C149.956 9.43752 150.752 9.14703 151.72 9.14703C152.667 9.14703 153.442 9.43752 154.044 10.0185C154.668 10.5779 154.98 11.288 154.98 12.1487C154.98 12.9879 154.668 13.6979 154.044 14.2789C153.442 14.8383 152.667 15.1181 151.72 15.1181ZM154.464 16.9901V35H148.945V16.9901H154.464ZM163.983 19.5399C164.52 18.7007 165.263 18.0229 166.21 17.5065C167.156 16.9901 168.264 16.7319 169.534 16.7319C171.019 16.7319 172.364 17.1084 173.568 17.8615C174.773 18.6146 175.72 19.6905 176.409 21.0891C177.119 22.4877 177.474 24.1123 177.474 25.9628C177.474 27.8132 177.119 29.4486 176.409 30.8687C175.72 32.2673 174.773 33.3539 173.568 34.1286C172.364 34.8817 171.019 35.2582 169.534 35.2582C168.286 35.2582 167.178 35 166.21 34.4836C165.263 33.9672 164.52 33.3001 163.983 32.4825V43.5854H158.463V16.9901H163.983V19.5399ZM171.858 25.9628C171.858 24.5857 171.471 23.5098 170.696 22.7352C169.943 21.939 169.007 21.541 167.888 21.541C166.791 21.541 165.855 21.939 165.08 22.7352C164.327 23.5313 163.95 24.6179 163.95 25.995C163.95 27.3721 164.327 28.4588 165.08 29.2549C165.855 30.051 166.791 30.4491 167.888 30.4491C168.985 30.4491 169.921 30.051 170.696 29.2549C171.471 28.4372 171.858 27.3399 171.858 25.9628Z" fill="url(#paint2_linear_166_7)"/>
<defs>
<linearGradient id="paint0_linear_166_7" x1="16.6106" y1="7.68964" x2="16.6106" y2="39.9655" gradientUnits="userSpaceOnUse">
<stop stop-color="#02BDDC"/>
<stop offset="1" stop-color="#3F52E3"/>
</linearGradient>
<radialGradient id="paint1_radial_166_7" cx="0" cy="0" r="1" gradientUnits="userSpaceOnUse" gradientTransform="translate(127 -35.5) rotate(126.637) scale(196.902 586.603)">
<stop stop-color="#7761FF"/>
<stop offset="1" stop-color="#CAC3F7"/>
</radialGradient>
<linearGradient id="paint2_linear_166_7" x1="107.81" y1="0" x2="107.81" y2="48" gradientUnits="userSpaceOnUse">
<stop stop-color="#68CFE0"/>
<stop offset="1" stop-color="#00DBFF" stop-opacity="0"/>
</linearGradient>
<clipPath id="clip0_166_7">
<rect width="32.2759" height="32.2759" fill="white" transform="translate(0 7.68964)"/>
</clipPath>
</defs>
</svg>
